<svg width="2756" height="538" viewBox="0 0 2756 538" fill="none" xmlns="http://www.w3.org/2000/svg">
<g clip-path="url(#clip0_19_132)">
<g filter="url(#filter0_d_19_132)">
<path d="M0.266667 266L0 532H35.4667H70.8V410.933V290L76.5333 296.4C79.6 299.867 128.667 354.267 185.467 417.333L288.8 531.867L334.533 532H380.133L258.8 399.733C192.133 326.933 137.467 267.067 137.467 266.667C137.467 266.267 190.667 207.067 255.867 135.2C320.933 63.3333 374.933 3.46667 376 2.26666C377.6 0.133301 374.667 0 334 0L290.133 0.133301L180.8 122.8L71.4667 245.467L71.0667 122.8L70.8 0H35.6H0.533333L0.266667 266Z" fill="#FF0000"/>
<path d="M68.2998 529.5V283.463L72.6621 288.332L78.3955 294.731L78.4004 294.737L78.4062 294.743C81.4631 298.199 130.512 352.581 187.322 415.659L187.323 415.658L289.913 529.37L334.541 529.5H374.447L256.958 401.423L256.956 401.422C223.622 365.021 193.288 331.853 171.286 307.734C160.286 295.676 151.367 285.878 145.197 279.068C142.113 275.664 139.713 273.003 138.082 271.18C137.268 270.269 136.639 269.56 136.212 269.069C136 268.826 135.827 268.624 135.701 268.473C135.642 268.401 135.573 268.317 135.512 268.236C135.485 268.201 135.431 268.127 135.373 268.037C135.347 267.996 135.288 267.903 135.228 267.78C135.197 267.717 135.132 267.563 135.099 267.47C135.065 267.36 135.015 267.106 134.986 266.879L134.967 266.667L134.985 266.459C135.013 266.237 135.061 265.989 135.093 265.881C135.125 265.788 135.188 265.634 135.218 265.571C135.277 265.448 135.335 265.356 135.361 265.314C135.418 265.224 135.472 265.151 135.498 265.115C135.558 265.034 135.625 264.95 135.684 264.879C135.806 264.728 135.976 264.528 136.182 264.287C136.598 263.801 137.21 263.1 138.003 262.199C139.591 260.395 141.928 257.763 144.933 254.397C150.942 247.665 159.632 237.978 170.358 226.061C191.811 202.225 221.413 169.456 254.015 133.521V133.521C312.169 69.2893 361.47 14.6538 372.049 2.91602C371.65 2.88641 371.208 2.85631 370.717 2.83008C365.186 2.53466 354.377 2.50098 334.006 2.50098L291.258 2.62988L182.666 124.464L73.333 247.13L68.9883 252.005L68.9668 245.475L68.5664 122.809V122.806L68.3057 2.5H3.03027L2.7666 266.003L2.50293 529.5H68.2998Z" stroke="black" stroke-width="5"/>
</g>
<g filter="url(#filter1_d_19_132)">
<path d="M993.467 176.267C993.467 290.267 994 356.933 994.8 364.667C998.267 394.533 1005.6 420.533 1016.4 441.733C1021.33 451.733 1034.4 469.733 1044.27 480.4C1087.33 527.067 1165.07 547.467 1243.47 532.533C1268.93 527.733 1304 512.8 1321.33 499.467C1358 471.2 1381.87 430.933 1390 383.333C1394.13 359.867 1394.8 327.067 1394.8 163.6V-3.05176e-05H1359.47H1324.13V176.933C1324.13 297.867 1323.6 357.867 1322.67 366C1318.67 399.067 1307.2 424.933 1289.07 442.267C1264.53 465.733 1235.6 476 1194.13 476C1130.67 476 1088.27 448.933 1071.6 398C1063.33 372.133 1063.73 382.267 1063.2 182.267L1062.67 -3.05176e-05H1028.13H993.467V176.267Z" fill="#00FF00"/>
<path d="M1046.1 478.705C1088.43 524.572 1165.2 544.897 1243 530.078L1243 530.077C1268.15 525.337 1302.83 510.543 1319.81 497.488V497.487C1355.96 469.62 1379.5 429.919 1387.54 382.912L1387.54 382.9C1391.62 359.711 1392.3 327.223 1392.3 163.6V2.49973H1326.63V176.933C1326.63 237.402 1326.5 282.643 1326.25 313.787C1326 344.823 1325.64 362.047 1325.15 366.285L1325.15 366.301C1321.1 399.759 1309.46 426.23 1290.79 444.074C1265.7 468.08 1236.09 478.5 1194.13 478.5C1162.06 478.5 1135.09 471.66 1113.97 458.209C1092.83 444.738 1077.72 424.745 1069.22 398.777L1069.22 398.769L1069.22 398.761C1067.18 392.384 1065.59 387.978 1064.42 381.982C1063.25 375.98 1062.5 368.42 1062 355.531C1061 329.772 1060.97 282.235 1060.7 182.274L1060.17 2.49973H995.967V176.266C995.967 233.263 996.1 278.424 996.333 310.299C996.567 342.275 996.903 360.698 997.287 364.41L997.286 364.411C1000.73 394.039 1008 419.727 1018.63 440.598L1018.63 440.613L1018.64 440.628C1023.44 450.348 1036.34 468.151 1046.1 478.703L1046.1 478.705Z" stroke="black" stroke-width="5"/>
</g>
<g filter="url(#filter2_d_19_132)">
<path d="M1837.47 176.267C1837.47 282.267 1838 357.467 1838.8 364.667C1841.33 388.133 1844.67 402.8 1851.73 422C1878.53 494.533 1947.33 537.333 2036.8 537.333C2075.33 537.333 2110.4 529.467 2140.67 514.133C2158.13 505.2 2168.8 497.6 2182.8 483.733C2209.87 457.067 2224.93 427.6 2233.73 384C2236.67 370.133 2236.67 367.6 2237.07 184.933L2237.6 -3.05176e-05H2202.8H2168.13V177.6C2168.13 364.8 2168.13 366.533 2162.13 389.733C2150.27 436.133 2117.73 465.067 2067.47 474.133C2053.47 476.667 2022.53 476.533 2007.87 474C1976.67 468.533 1953.2 456 1936 435.6C1926.53 424.267 1920.27 412.533 1914.93 395.733C1906.8 370.133 1906.8 369.867 1906.8 175.867V-3.05176e-05H1872.13H1837.47V176.267Z" fill="#8800FF"/>
<path d="M2036.8 534.833C2074.99 534.833 2109.66 527.04 2139.53 511.909V511.908C2156.77 503.087 2167.23 495.636 2181.04 481.957L2181.05 481.952C2207.7 455.691 2222.56 426.701 2231.28 383.505L2231.29 383.493L2231.29 383.483C2232.7 376.788 2233.43 372.879 2233.85 347.725C2234.27 322.548 2234.37 276.274 2234.57 184.928V184.926L2235.09 2.50034H2170.63V177.6C2170.63 364.553 2170.66 366.759 2164.55 390.36C2158.51 413.983 2147.17 433.268 2130.86 447.8C2114.56 462.327 2093.41 471.994 2067.91 476.594H2067.91C2060.68 477.902 2049.27 478.501 2037.91 478.467C2026.54 478.434 2014.98 477.765 2007.44 476.463L2007.44 476.462C1975.77 470.914 1951.74 458.141 1934.09 437.211L1934.08 437.202C1924.38 425.584 1917.97 413.551 1912.55 396.491C1910.52 390.093 1908.94 385.128 1907.77 378.284C1906.6 371.465 1905.83 362.84 1905.32 349.042C1904.3 321.466 1904.3 272.834 1904.3 175.867V2.50034H1839.97V176.267C1839.97 229.264 1840.1 274.557 1840.33 307.499C1840.45 323.971 1840.59 337.349 1840.75 347.056C1840.92 356.844 1841.1 362.74 1841.29 364.391L1841.29 364.399C1843.8 387.689 1847.09 402.153 1854.08 421.137C1880.45 492.498 1948.17 534.833 2036.8 534.833Z" stroke="black" stroke-width="5"/>
</g>
<g filter="url(#filter3_d_19_132)">
<path d="M2308.13 266V532H2401.87C2497.87 532 2516.27 531.2 2544.8 526.133C2589.33 518.133 2639.33 496.4 2668.13 472.267C2700.4 445.2 2720.13 417.6 2736.67 376.8C2761.47 315.2 2761.73 220.933 2737.33 159.067C2725.2 128.4 2708.4 101.733 2687.6 80.2666C2653.87 45.4666 2615.73 24.1333 2564.13 10.9333C2528.53 1.73328 2500.67 0 2391.2 0H2308.13V266ZM2508.13 58.6667C2560 64.9333 2599.07 82 2628.27 110.933C2659.2 141.733 2676.13 179.333 2682.93 232.533C2684.93 248.8 2683.73 302.267 2680.93 317.333C2672.67 360.8 2656.53 393.733 2630.53 420C2612 438.8 2589.07 452.667 2561.47 461.867C2528.67 472.8 2510.53 474.667 2435.87 474.667H2377.47V266V57.3333H2437.2C2470 57.3333 2502 58 2508.13 58.6667Z" fill="#FF00D0"/>
<path d="M2401.87 534.5C2494.82 534.5 2515.21 533.756 2542.57 529.062L2545.24 528.595L2545.24 528.594C2589.41 520.66 2638.96 499.332 2668.36 475.328L2669.74 474.183L2669.74 474.182C2701.83 447.265 2721.68 419.769 2738.2 379.658L2738.98 377.739L2738.99 377.733C2751.53 346.566 2757.83 307.268 2757.95 268.041C2758.07 228.813 2752 189.45 2739.66 158.149L2739.66 158.146C2727.42 127.208 2710.45 100.255 2689.4 78.5273V78.5264C2655.31 43.3613 2616.75 21.8155 2564.76 8.51367C2528.8 -0.779082 2500.61 -2.5 2391.2 -2.5H2305.63V534.5H2401.87ZM2379.97 59.833H2437.2C2470.06 59.833 2501.9 60.504 2507.86 61.1523C2559.31 67.3727 2597.8 84.2637 2626.5 112.705C2656.96 143.029 2673.71 180.068 2680.45 232.839C2681.43 240.767 2681.63 258.028 2681.23 275.325C2680.83 292.63 2679.83 309.556 2678.48 316.866L2678.09 318.878C2669.78 360.957 2653.94 392.798 2628.76 418.241L2628.75 418.245C2610.53 436.735 2587.94 450.406 2560.68 459.495C2528.29 470.292 2510.5 472.167 2435.87 472.167H2379.97V59.833Z" stroke="black" stroke-width="5"/>
</g>
<g filter="url(#filter4_d_19_132)">
<path d="M684.267 5.59998C683.733 7.33331 667.733 51.2 648.8 103.333C630 155.333 587.333 272.933 554 364.533C520.667 456.133 493.467 531.2 493.467 531.467C493.467 531.733 509.867 532 529.867 532H566.133L587.333 473.333L608.533 414.667L666.667 414.533C698.667 414.4 750.933 414.267 782.8 414.133L840.8 414L862.133 472.933L883.467 532H920C954 532 956.4 531.867 955.867 529.6C955.467 528.4 932.267 464 904.133 386.667C862.8 272.533 772 21.6 766.533 6.26666L765.2 2.66663H725.333H685.467L684.267 5.59998ZM773.2 224L820.933 356.667L725.6 357.067C673.2 357.2 630.133 357.067 629.733 356.8C629.467 356.4 650.667 296.133 676.933 222.667C703.2 149.2 724.933 89.6 725.2 90.2666C725.333 90.8 747.067 151.067 773.2 224Z" fill="#DBDB00"/>
<path d="M529.867 529.5H564.379L584.982 472.483L606.183 413.817L606.777 412.171L608.527 412.167L666.656 412.034V412.033C698.854 411.899 750.732 411.768 782.79 411.634H782.794L840.794 411.5L842.553 411.496L843.15 413.149L864.484 472.082V472.084L885.223 529.5H920C937.051 529.5 946.041 529.465 950.719 529.155C951.677 529.092 952.414 529.018 952.977 528.938C952.803 528.45 952.587 527.845 952.33 527.13C951.603 525.104 950.554 522.189 949.219 518.482C946.548 511.069 942.732 500.491 938.049 487.533C928.683 461.618 915.85 426.186 901.784 387.521L901.783 387.518C860.452 273.391 769.649 22.4499 764.179 7.10645L763.46 5.16699H687.145L686.597 6.50879C686.015 8.23421 681.951 19.4515 675.783 36.4209L651.15 104.187C632.349 156.19 589.683 273.789 556.35 365.389C539.683 411.188 524.55 452.854 513.584 483.103C508.101 498.227 503.659 510.496 500.589 519.001C499.054 523.254 497.861 526.563 497.054 528.817C497.009 528.941 496.967 529.062 496.925 529.18C498.723 529.235 501.199 529.288 504.205 529.334C510.79 529.434 519.877 529.5 529.867 529.5ZM725.606 359.566C699.403 359.633 675.531 359.633 658.159 359.583C649.474 359.558 642.409 359.521 637.488 359.473C635.029 359.449 633.097 359.422 631.764 359.393C631.1 359.378 630.568 359.363 630.189 359.346C630.004 359.337 629.828 359.328 629.683 359.315C629.615 359.31 629.514 359.3 629.407 359.284C629.356 359.276 629.261 359.261 629.147 359.232C629.124 359.227 628.742 359.143 628.347 358.88L627.931 358.603L627.653 358.187C627.319 357.685 627.261 357.203 627.247 357.077C627.225 356.886 627.23 356.731 627.234 356.652C627.243 356.491 627.265 356.36 627.275 356.302C627.299 356.17 627.329 356.046 627.351 355.963C627.398 355.781 627.464 355.555 627.54 355.305C627.696 354.795 627.93 354.069 628.234 353.149C628.845 351.305 629.757 348.62 630.938 345.19C633.302 338.328 636.75 328.455 641.025 316.304C649.577 291.999 661.445 258.561 674.579 221.825C687.714 185.089 699.715 151.817 708.468 127.811C712.843 115.809 716.409 106.117 718.898 99.4658C720.142 96.1425 721.121 93.5666 721.8 91.8379C722.137 90.9785 722.41 90.3044 722.607 89.8467C722.701 89.6298 722.801 89.4053 722.895 89.2236C722.925 89.1669 723.032 88.9594 723.195 88.749C723.205 88.7366 723.536 88.2661 724.158 87.9844C724.552 87.8059 725.346 87.5854 726.227 87.9844C727.055 88.359 727.399 89.0325 727.521 89.3379L727.584 89.4961L727.601 89.5654C727.608 89.5867 727.62 89.6205 727.637 89.6699C727.68 89.7949 727.745 89.978 727.831 90.2207C728.003 90.7054 728.254 91.4131 728.583 92.333C729.24 94.1725 730.202 96.8541 731.435 100.286C733.899 107.15 737.444 117.012 741.803 129.138C750.519 153.387 762.486 186.687 775.553 223.153L823.286 355.82L824.484 359.151L820.944 359.167L725.61 359.566H725.606Z" stroke="black" stroke-width="5"/>
</g>
<g filter="url(#filter5_d_19_132)">
<path d="M1449.47 252V281.333H1601.47H1753.47V252V222.667H1601.47H1449.47V252Z" fill="#00BBFF"/>
<path d="M1750.97 278.833V225.166H1451.97V278.833H1750.97Z" stroke="black" stroke-width="5"/>
</g>
<g filter="url(#filter6_d_19_132)">
<path d="M416.8 445.333C402.667 450.933 391.333 464.8 388.133 480.4C383.733 502.267 396.4 525.6 416.8 533.2C425.733 536.533 441.2 536.933 449.467 534C468.4 527.333 481.733 505.6 479.6 484.8C478 468.933 467.6 453.733 453.467 446.533C445.067 442.133 426.267 441.467 416.8 445.333Z" fill="#FF6600"/>
<path d="M433.446 533.451C439.312 533.597 444.902 532.967 448.631 531.644L448.636 531.642C466.42 525.381 479.135 504.771 477.113 485.056V485.051C475.598 470.028 465.705 455.573 452.332 448.761L452.319 448.755L452.306 448.748C448.597 446.805 442.238 445.56 435.449 445.332C428.679 445.104 422.014 445.904 417.746 447.647L417.733 447.653L417.721 447.658L417.099 447.91C404.287 453.254 393.909 465.903 390.73 480.209L390.583 480.902C386.421 501.607 398.469 523.703 417.673 530.857L417.674 530.858C421.794 532.396 427.596 533.305 433.446 533.451Z" stroke="black" stroke-width="5"/>
</g>
</g>
<defs>
<filter id="filter0_d_19_132" x="0" y="0" width="420.133" height="572" filterUnits="userSpaceOnUse" color-interpolation-filters="sRGB">
<feFlood flood-opacity="0" result="BackgroundImageFix"/>
<feColorMatrix in="SourceAlpha" type="matrix" values="0 0 0 0 0 0 0 0 0 0 0 0 0 0 0 0 0 0 127 0" result="hardAlpha"/>
<feOffset dx="20" dy="20"/>
<feGaussianBlur stdDeviation="10"/>
<feComposite in2="hardAlpha" operator="out"/>
<feColorMatrix type="matrix" values="0 0 0 0 0 0 0 0 0 0 0 0 0 0 0 0 0 0 0.25 0"/>
<feBlend mode="normal" in2="BackgroundImageFix" result="effect1_dropShadow_19_132"/>
<feBlend mode="normal" in="SourceGraphic" in2="effect1_dropShadow_19_132" result="shape"/>
</filter>
<filter id="filter1_d_19_132" x="993.467" y="0" width="441.333" height="577.356" filterUnits="userSpaceOnUse" color-interpolation-filters="sRGB">
<feFlood flood-opacity="0" result="BackgroundImageFix"/>
<feColorMatrix in="SourceAlpha" type="matrix" values="0 0 0 0 0 0 0 0 0 0 0 0 0 0 0 0 0 0 127 0" result="hardAlpha"/>
<feOffset dx="20" dy="20"/>
<feGaussianBlur stdDeviation="10"/>
<feComposite in2="hardAlpha" operator="out"/>
<feColorMatrix type="matrix" values="0 0 0 0 0 0 0 0 0 0 0 0 0 0 0 0 0 0 0.25 0"/>
<feBlend mode="normal" in2="BackgroundImageFix" result="effect1_dropShadow_19_132"/>
<feBlend mode="normal" in="SourceGraphic" in2="effect1_dropShadow_19_132" result="shape"/>
</filter>
<filter id="filter2_d_19_132" x="1837.47" y="0" width="440.133" height="577.333" filterUnits="userSpaceOnUse" color-interpolation-filters="sRGB">
<feFlood flood-opacity="0" result="BackgroundImageFix"/>
<feColorMatrix in="SourceAlpha" type="matrix" values="0 0 0 0 0 0 0 0 0 0 0 0 0 0 0 0 0 0 127 0" result="hardAlpha"/>
<feOffset dx="20" dy="20"/>
<feGaussianBlur stdDeviation="10"/>
<feComposite in2="hardAlpha" operator="out"/>
<feColorMatrix type="matrix" values="0 0 0 0 0 0 0 0 0 0 0 0 0 0 0 0 0 0 0.25 0"/>
<feBlend mode="normal" in2="BackgroundImageFix" result="effect1_dropShadow_19_132"/>
<feBlend mode="normal" in="SourceGraphic" in2="effect1_dropShadow_19_132" result="shape"/>
</filter>
<filter id="filter3_d_19_132" x="2303.13" y="-5" width="497.318" height="582" filterUnits="userSpaceOnUse" color-interpolation-filters="sRGB">
<feFlood flood-opacity="0" result="BackgroundImageFix"/>
<feColorMatrix in="SourceAlpha" type="matrix" values="0 0 0 0 0 0 0 0 0 0 0 0 0 0 0 0 0 0 127 0" result="hardAlpha"/>
<feOffset dx="20" dy="20"/>
<feGaussianBlur stdDeviation="10"/>
<feComposite in2="hardAlpha" operator="out"/>
<feColorMatrix type="matrix" values="0 0 0 0 0 0 0 0 0 0 0 0 0 0 0 0 0 0 0.25 0"/>
<feBlend mode="normal" in2="BackgroundImageFix" result="effect1_dropShadow_19_132"/>
<feBlend mode="normal" in="SourceGraphic" in2="effect1_dropShadow_19_132" result="shape"/>
</filter>
<filter id="filter4_d_19_132" x="493.467" y="2.66663" width="502.459" height="569.333" filterUnits="userSpaceOnUse" color-interpolation-filters="sRGB">
<feFlood flood-opacity="0" result="BackgroundImageFix"/>
<feColorMatrix in="SourceAlpha" type="matrix" values="0 0 0 0 0 0 0 0 0 0 0 0 0 0 0 0 0 0 127 0" result="hardAlpha"/>
<feOffset dx="20" dy="20"/>
<feGaussianBlur stdDeviation="10"/>
<feComposite in2="hardAlpha" operator="out"/>
<feColorMatrix type="matrix" values="0 0 0 0 0 0 0 0 0 0 0 0 0 0 0 0 0 0 0.25 0"/>
<feBlend mode="normal" in2="BackgroundImageFix" result="effect1_dropShadow_19_132"/>
<feBlend mode="normal" in="SourceGraphic" in2="effect1_dropShadow_19_132" result="shape"/>
</filter>
<filter id="filter5_d_19_132" x="1449.47" y="222.667" width="344" height="98.6667" filterUnits="userSpaceOnUse" color-interpolation-filters="sRGB">
<feFlood flood-opacity="0" result="BackgroundImageFix"/>
<feColorMatrix in="SourceAlpha" type="matrix" values="0 0 0 0 0 0 0 0 0 0 0 0 0 0 0 0 0 0 127 0" result="hardAlpha"/>
<feOffset dx="20" dy="20"/>
<feGaussianBlur stdDeviation="10"/>
<feComposite in2="hardAlpha" operator="out"/>
<feColorMatrix type="matrix" values="0 0 0 0 0 0 0 0 0 0 0 0 0 0 0 0 0 0 0.25 0"/>
<feBlend mode="normal" in2="BackgroundImageFix" result="effect1_dropShadow_19_132"/>
<feBlend mode="normal" in="SourceGraphic" in2="effect1_dropShadow_19_132" result="shape"/>
</filter>
<filter id="filter6_d_19_132" x="387.261" y="442.794" width="132.563" height="133.178" filterUnits="userSpaceOnUse" color-interpolation-filters="sRGB">
<feFlood flood-opacity="0" result="BackgroundImageFix"/>
<feColorMatrix in="SourceAlpha" type="matrix" values="0 0 0 0 0 0 0 0 0 0 0 0 0 0 0 0 0 0 127 0" result="hardAlpha"/>
<feOffset dx="20" dy="20"/>
<feGaussianBlur stdDeviation="10"/>
<feComposite in2="hardAlpha" operator="out"/>
<feColorMatrix type="matrix" values="0 0 0 0 0 0 0 0 0 0 0 0 0 0 0 0 0 0 0.25 0"/>
<feBlend mode="normal" in2="BackgroundImageFix" result="effect1_dropShadow_19_132"/>
<feBlend mode="normal" in="SourceGraphic" in2="effect1_dropShadow_19_132" result="shape"/>
</filter>
<clipPath id="clip0_19_132">
<rect width="2755.45" height="537.356" fill="white"/>
</clipPath>
</defs>
</svg>
